# xmcd CD database file
#
# Track frame offsets:
#	150
#	1143
#	15862
#	31506
#	46410
#	61301
#	77648
#	89933
#	102593
#	115593
#	127356
#	140657
#	153067
#	161888
#	171639
#	184416
#	197203
#	209014
#	226229
#	240736
#	254740
#	265554
#	285148
#
# Disc length: 4010 seconds
#
# Revision: 0
# Processed by: cddbd v1.5PL3 Copyright (c) Steve Scherf et al.
# Submitted via: CDex 1.51
#
DISCID=440fa817
DTITLE=BasiL - それは舞い散る桜のように
DYEAR=2002
DGENRE=Game
TTITLE0=Data Track
TTITLE1=When I Wish Upon a Star
TTITLE2=Tiresome Snow
TTITLE3=Double Flapper
TTITLE4=Afternoon Book Party
TTITLE5=15, JULY
TTITLE6=King-Kong-Jack-Song
TTITLE7=Maison de SAKURA
TTITLE8=らんぶるそんぐ
TTITLE9=おぱんつブギー
TTITLE10=Calmy Wind
TTITLE11=Creeping Doom
TTITLE12=Blue Moon
TTITLE13=passion
TTITLE14=黄昏ゆく街
TTITLE15=Three Petals
TTITLE16=優しさの雨に抱かれて
TTITLE17=beloved 〜桜の彼方へ〜
TTITLE18=Innocent Snow
TTITLE19=re-xxxx
TTITLE20=ドタバタディキシー sorechiru mix
TTITLE21=dear
TTITLE22=days
EXTD=YEAR: 2002
EXTT0=
EXTT1=
EXTT2=
EXTT3=
EXTT4=
EXTT5=
EXTT6=
EXTT7=
EXTT8=
EXTT9=
EXTT10=
EXTT11=
EXTT12=
EXTT13=
EXTT14=
EXTT15=
EXTT16=
EXTT17=
EXTT18=
EXTT19=
EXTT20=
EXTT21=
EXTT22=
PLAYORDER=
